HIERARCHY
ROOT hip
{
  OFFSET 0.0 0.0 0.0
  CHANNELS 6 Xposition Yposition Zposition Zrotation Yrotation Xrotation
  JOINT abdomen
  {
    OFFSET 0.0 20.6881 -0.73152
    CHANNELS 3 Zrotation Xrotation Yrotation
    JOINT chest
    {
      OFFSET 0.0 11.7043 -0.48768
      CHANNELS 3 Zrotation Xrotation Yrotation
      JOINT neck
      {
        OFFSET 0.0 22.1894 -2.19456
        CHANNELS 3 Zrotation Xrotation Yrotation
        JOINT head
        {
          OFFSET -0.24384 7.07133 1.2192
          CHANNELS 3 Zrotation Xrotation Yrotation
          JOINT leftEye
          {
            OFFSET 4.14528 8.04674 8.04672
            CHANNELS 3 Zrotation Xrotation Yrotation
            End Site
            {
              OFFSET 1.0 0.0 0.0
            }
          }
          JOINT rightEye
          {
            OFFSET -3.6576 8.04674 8.04672
            CHANNELS 3 Zrotation Xrotation Yrotation
            End Site
            {
              OFFSET 1.0 0.0 0.0
            }
          }
        }
      }
      JOINT rCollar
      {
        OFFSET -2.68224 19.2634 -4.8768
        CHANNELS 3 Zrotation Xrotation Yrotation
        JOINT rShldr
        {
          OFFSET -8.77824 -1.95073 1.46304
          CHANNELS 3 Zrotation Xrotation Yrotation
          JOINT rForeArm
          {
            OFFSET -28.1742 -1.7115 0.48768
            CHANNELS 3 Zrotation Xrotation Yrotation
            JOINT rHand
            {
              OFFSET -22.5879 0.773209 7.07136
              CHANNELS 3 Zrotation Xrotation Yrotation
              JOINT rThumb1
              {
                OFFSET -1.2192 -0.487915 3.41376
                CHANNELS 3 Zrotation Xrotation Yrotation
                JOINT rThumb2
                {
                  OFFSET -3.37035 -0.52449 3.41376
                  CHANNELS 3 Zrotation Xrotation Yrotation
                  End Site
                  {
                    OFFSET -1.78271 -1.18214 1.43049
                  }
                }
              }
              JOINT rIndex1
              {
                OFFSET -7.75947 0.938293 5.60832
                CHANNELS 3 Zrotation Xrotation Yrotation
                JOINT rIndex2
                {
                  OFFSET -2.54057 -0.884171 1.56538
                  CHANNELS 3 Zrotation Xrotation Yrotation
                  End Site
                  {
                    OFFSET -1.62519 -0.234802 1.16502
                  }
                }
              }
              JOINT rMid1
              {
                OFFSET -8.24714 1.18213 3.41376
                CHANNELS 3 Zrotation Xrotation Yrotation
                JOINT rMid2
                {
                  OFFSET -3.10165 -0.590103 1.0647
                  CHANNELS 3 Zrotation Xrotation Yrotation
                  End Site
                  {
                    OFFSET -2.48547 -0.328903 0.83742
                  }
                }
              }
              JOINT rRing1
              {
                OFFSET -8.82822 0.546677 1.51678
                CHANNELS 3 Zrotation Xrotation Yrotation
                JOINT rRing2
                {
                  OFFSET -2.60934 -0.819778 -0.0198488
                  CHANNELS 3 Zrotation Xrotation Yrotation
                  End Site
                  {
                    OFFSET -2.33842 -0.294052 0.168128
                  }
                }
              }
              JOINT rPinky1
              {
                OFFSET -8.27202 -0.0477905 -0.4584
                CHANNELS 3 Zrotation Xrotation Yrotation
                JOINT rPinky2
                {
                  OFFSET -1.82734 -0.647385 -0.700984
                  CHANNELS 3 Zrotation Xrotation Yrotation
                  End Site
                  {
                    OFFSET -1.69225 -0.51767 -0.607171
                  }
                }
              }
            }
          }
        }
      }
      JOINT lCollar
      {
        OFFSET 2.68224 19.2634 -4.8768
        CHANNELS 3 Zrotation Xrotation Yrotation
        JOINT lShldr
        {
          OFFSET 8.77824 -1.95073 1.46304
          CHANNELS 3 Zrotation Xrotation Yrotation
          JOINT lForeArm
          {
            OFFSET 28.1742 -1.7115 0.48768
            CHANNELS 3 Zrotation Xrotation Yrotation
            JOINT lHand
            {
              OFFSET 22.5879 0.773209 7.07136
              CHANNELS 3 Zrotation Xrotation Yrotation
              JOINT lThumb1
              {
                OFFSET 1.2192 -0.487915 3.41376
                CHANNELS 3 Zrotation Xrotation Yrotation
                JOINT lThumb2
                {
                  OFFSET 3.37035 -0.52449 3.41376
                  CHANNELS 3 Zrotation Xrotation Yrotation
                  End Site
                  {
                    OFFSET 1.78271 -1.18214 1.43049
                  }
                }
              }
              JOINT lIndex1
              {
                OFFSET 7.75947 0.938293 5.60832
                CHANNELS 3 Zrotation Xrotation Yrotation
                JOINT lIndex2
                {
                  OFFSET 2.54057 -0.884171 1.56538
                  CHANNELS 3 Zrotation Xrotation Yrotation
                  End Site
                  {
                    OFFSET 1.62519 -0.234802 1.16502
                  }
                }
              }
              JOINT lMid1
              {
                OFFSET 8.24714 1.18213 3.41376
                CHANNELS 3 Zrotation Xrotation Yrotation
                JOINT lMid2
                {
                  OFFSET 3.10165 -0.590103 1.0647
                  CHANNELS 3 Zrotation Xrotation Yrotation
                  End Site
                  {
                    OFFSET 2.48547 -0.328903 0.83742
                  }
                }
              }
              JOINT lRing1
              {
                OFFSET 8.82822 0.546677 1.51678
                CHANNELS 3 Zrotation Xrotation Yrotation
                JOINT lRing2
                {
                  OFFSET 2.60934 -0.819778 -0.0198488
                  CHANNELS 3 Zrotation Xrotation Yrotation
                  End Site
                  {
                    OFFSET 2.33842 -0.294052 0.168128
                  }
                }
              }
              JOINT lPinky1
              {
                OFFSET 8.27202 -0.0477905 -0.4584
                CHANNELS 3 Zrotation Xrotation Yrotation
                JOINT lPinky2
                {
                  OFFSET 1.82734 -0.647385 -0.700984
                  CHANNELS 3 Zrotation Xrotation Yrotation
                  End Site
                  {
                    OFFSET 1.69225 -0.51767 -0.607171
                  }
                }
              }
            }
          }
        }
      }
    }
  }
  JOINT rButtock
  {
    OFFSET -8.77824 4.35084 1.2192
    CHANNELS 3 Zrotation Xrotation Yrotation
    JOINT rThigh
    {
      OFFSET 0.0 -1.70687 -2.19456
      CHANNELS 3 Zrotation Xrotation Yrotation
      JOINT rShin
      {
        OFFSET 0.0 -36.8199 0.73152
        CHANNELS 3 Zrotation Xrotation Yrotation
        JOINT rFoot
        {
          OFFSET 0.73152 -45.1104 -5.12064
          CHANNELS 3 Zrotation Xrotation Yrotation
          End Site
          {
            OFFSET -1.1221 -3.69964 12.103
          }
        }
      }
    }
  }
  JOINT lButtock
  {
    OFFSET 8.77824 4.35084 1.2192
    CHANNELS 3 Zrotation Xrotation Yrotation
    JOINT lThigh
    {
      OFFSET 0.0 -1.70687 -2.19456
      CHANNELS 3 Zrotation Xrotation Yrotation
      JOINT lShin
      {
        OFFSET 0.0 -36.8199 0.73152
        CHANNELS 3 Zrotation Xrotation Yrotation
        JOINT lFoot
        {
          OFFSET -0.73152 -45.1104 -5.12064
          CHANNELS 3 Zrotation Xrotation Yrotation
          End Site
          {
            OFFSET 1.1221 -3.69964 12.103
          }
        }
      }
    }
  }
}
MOTION
Frames: 8
Frame Time: 0.00833333
10.840074 72.4038 33.25750000000001 -3.6177 -0.9679 -5.3261 3.72227 13.7426 4.62244 3.15855 -2.26608 1.32799 4.62524 -0.956085 0.891912 -10.265 -6.91582 -0.21044 -0.0 0.0 0.0 -0.0 0.0 0.0 0.0 0.0 0.0 0.0 0.0 0.0 0.0 0.0 0.0 -0.0255923 -4.56578 -0.643049 1.71941e-09 -1.48886e-09 9.8785e-11 2.96917e-09 -2.57275e-09 1.74917e-10 1.71942e-09 -1.48886e-09 9.87777e-11 7.73091 5.47488 0.417314 1.71941e-09 -1.48886e-09 9.8789e-11 2.90554 0.965183 0.102902 1.71942e-09 -1.48886e-09 9.87858e-11 10.2786 0.731801 0.0259123 1.71941e-09 -1.48886e-09 9.87918e-11 2.22167 -0.733487 -0.20892 0.0 0.0 0.0 0.0 0.0 0.0 0.0 0.0 0.0 0.00184542 -1.20796 0.169795 1.89314e-09 1.11735e-09 1.98038e-10 3.27098e-09 1.93381e-09 3.40499e-10 1.89313e-09 1.11735e-09 1.98045e-10 -7.73091 5.47488 -0.417314 1.89314e-09 1.11735e-09 1.98042e-10 -2.90554 0.965183 -0.102902 1.89313e-09 1.11735e-09 1.98041e-10 -10.2786 0.731801 -0.0259123 1.89314e-09 1.11735e-09 1.98041e-10 -2.22167 -0.733487 0.20892 -2.03217e-16 0.0 -3.88251e-19 -13.0517 -20.4262 -10.4472 -20.3306 87.1173 20.8895 -0.543005 1.70349 -1.66583 2.03217e-16 0.0 3.88251e-19 9.25052 -35.5511 10.4788 1.81051 68.1723 -2.20404 5.78184 -19.1646 12.1649
11.018074 72.3875 33.839 -3.3204 -1.039 -5.3599 3.29089 13.8103 4.06324 3.40954 -2.2793 1.16378 4.9312 -0.883868 1.18084 -10.5144 -7.09707 0.247001 -0.0 0.0 0.0 -0.0 0.0 0.0 0.0 0.0 0.0 0.0 0.0 0.0 0.0 0.0 0.0 -0.0228115 -4.30772 -0.606563 1.1201e-09 -2.35664e-10 -3.1785e-10 1.93326e-09 -4.05454e-10 -5.46315e-10 1.12011e-09 -2.3566e-10 -3.17858e-10 7.73091 5.47488 0.417314 1.1201e-09 -2.35664e-10 -3.1785e-10 2.90554 0.965183 0.102902 1.12011e-09 -2.35663e-10 -3.17849e-10 10.2786 0.731801 0.0259123 1.12009e-09 -2.35663e-10 -3.17841e-10 2.22167 -0.733487 -0.20892 0.0 0.0 0.0 0.0 0.0 0.0 0.0 0.0 0.0 0.00176884 -1.1935 0.16776 1.62522e-09 1.48901e-09 8.41263e-10 2.81e-09 2.57578e-09 1.45318e-09 1.62522e-09 1.48901e-09 8.41274e-10 -7.73091 5.47488 -0.417314 1.62522e-09 1.48901e-09 8.41273e-10 -2.90554 0.965183 -0.102902 1.62522e-09 1.48901e-09 8.41269e-10 -10.2786 0.731801 -0.0259123 1.62523e-09 1.48901e-09 8.41269e-10 -2.22167 -0.733487 0.20892 -2.03217e-16 0.0 -3.88251e-19 -14.053 -22.1281 -11.3782 -43.6055 88.5053 44.1679 -0.631173 0.833225 -2.03035 2.03217e-16 0.0 3.88251e-19 8.55901 -35.007 10.1663 1.79234 68.0995 -2.21589 6.0847 -19.4075 12.701
11.190474 72.3711 34.4233 -3.0199 -1.1338 -5.406 2.85999 13.9019 3.5268 3.64138 -2.29647 1.00639 5.19975 -0.821736 1.45355 -10.708 -7.24869 0.688632 -0.0 0.0 0.0 -0.0 0.0 0.0 0.0 0.0 0.0 0.0 0.0 0.0 0.0 0.0 0.0 -0.0201014 -4.04419 -0.569329 7.54762e-10 4.81366e-10 -5.87719e-10 1.3021e-09 8.34269e-10 -1.01381e-09 7.54767e-10 4.81371e-10 -5.87728e-10 7.73091 5.47488 0.417314 7.54759e-10 4.81367e-10 -5.87722e-10 2.90554 0.965183 0.102902 7.54764e-10 4.81367e-10 -5.87718e-10 10.2786 0.731801 0.0259123 7.54754e-10 4.81367e-10 -5.87709e-10 2.22167 -0.733487 -0.20892 0.0 0.0 0.0 0.0 0.0 0.0 0.0 0.0 0.0 0.00175331 -1.19555 0.168048 1.3996e-09 1.68981e-09 1.20151e-09 2.42118e-09 2.92251e-09 2.07652e-09 1.3996e-09 1.68981e-09 1.20152e-09 -7.73091 5.47488 -0.417314 1.3996e-09 1.68981e-09 1.20152e-09 -2.90554 0.965183 -0.102902 1.39959e-09 1.68981e-09 1.20151e-09 -10.2786 0.731801 -0.0259123 1.3996e-09 1.68981e-09 1.20151e-09 -2.22167 -0.733487 0.20892 -2.03217e-16 0.0 -3.88251e-19 -15.0326 -23.8416 -12.3077 -110.854 88.8676 111.419 -0.734924 0.0920414 -2.41771 2.03217e-16 0.0 3.88251e-19 7.87752 -34.4312 9.87692 1.77168 68.0076 -2.22679 6.3959 -19.6562 13.2434
11.358774 72.3571 35.0082 -2.7101 -1.2544 -5.47 2.4372 14.0243 3.01733 3.84611 -2.32031 0.857308 5.41785 -0.779439 1.70643 -10.822 -7.35177 1.11342 -0.0 0.0 0.0 -0.0 0.0 0.0 0.0 0.0 0.0 0.0 0.0 0.0 0.0 0.0 0.0 -0.017389 -3.76843 -0.530387 7.60492e-10 3.85777e-10 -6.7227e-10 1.31289e-09 6.68067e-10 -1.16103e-09 7.60497e-10 3.85782e-10 -6.7228e-10 7.73091 5.47488 0.417314 7.60489e-10 3.85779e-10 -6.72274e-10 2.90554 0.965183 0.102902 7.60495e-10 3.85779e-10 -6.7227e-10 10.2786 0.731801 0.0259123 7.60485e-10 3.85779e-10 -6.72262e-10 2.22167 -0.733487 -0.20892 0.0 0.0 0.0 0.0 0.0 0.0 0.0 0.0 0.0 0.00182068 -1.21765 0.171156 1.25589e-09 1.691e-09 1.1422e-09 2.17262e-09 2.92445e-09 1.97438e-09 1.25589e-09 1.691e-09 1.14222e-09 -7.73091 5.47488 -0.417314 1.25589e-09 1.691e-09 1.14221e-09 -2.90554 0.965183 -0.102902 1.25588e-09 1.691e-09 1.14221e-09 -10.2786 0.731801 -0.0259123 1.25589e-09 1.691e-09 1.14221e-09 -2.22167 -0.733487 0.20892 -2.03217e-16 0.0 -3.88251e-19 -15.9901 -25.574 -13.2512 -148.377 87.9335 148.943 -0.857338 -0.467721 -2.85695 2.03217e-16 0.0 3.88251e-19 7.2121 -33.8178 9.61366 1.7484 67.8976 -2.23697 6.71839 -19.9172 13.7949
11.521474 72.3454 35.59530000000001 -2.3948 -1.3974 -5.546 2.01615 14.1712 2.52772 4.03016 -2.34689 0.714539 5.60158 -0.753828 1.9445 -10.8748 -7.42069 1.52454 -0.0 0.0 0.0 -0.0 0.0 0.0 0.0 0.0 0.0 0.0 0.0 0.0 0.0 0.0 0.0 -0.0147575 -3.47701 -0.489263 9.47963e-10 -1.5189e-10 -6.57972e-10 1.63829e-09 -2.6311e-10 -1.1376e-09 9.47966e-10 -1.51886e-10 -6.57984e-10 7.73091 5.47488 0.417314 9.47959e-10 -1.51888e-10 -6.57976e-10 2.90554 0.965183 0.102902 9.47967e-10 -1.51888e-10 -6.57974e-10 10.2786 0.731801 0.0259123 9.47957e-10 -1.51887e-10 -6.57967e-10 2.22167 -0.733487 -0.20892 0.0 0.0 0.0 0.0 0.0 0.0 0.0 0.0 0.0 0.00189832 -1.24189 0.174564 1.10371e-09 1.54948e-09 8.32077e-10 1.90862e-09 2.67977e-09 1.43861e-09 1.10371e-09 1.54948e-09 8.32088e-10 -7.73091 5.47488 -0.417314 1.10371e-09 1.54948e-09 8.32081e-10 -2.90554 0.965183 -0.102902 1.1037e-09 1.54949e-09 8.32081e-10 -10.2786 0.731801 -0.0259123 1.10371e-09 1.54948e-09 8.32073e-10 -2.22167 -0.733487 0.20892 -2.03217e-16 0.0 -3.88251e-19 -16.9408 -27.3255 -14.2241 -159.748 86.8026 160.314 -1.00598 -0.95314 -3.38226 2.03217e-16 0.0 3.88251e-19 6.5549 -33.1758 9.36739 1.72256 67.7713 -2.24675 7.05195 -20.1825 14.3563
11.678774 72.336 36.17980000000001 -2.0722 -1.5482 -5.6288 1.58665 14.332 2.05329 4.2065 -2.37302 0.576253 5.76899 -0.725337 2.17213 -10.9091 -7.48733 1.92157 -0.0 0.0 0.0 -0.0 0.0 0.0 0.0 0.0 0.0 0.0 0.0 0.0 0.0 0.0 0.0 -0.012412 -3.18773 -0.448469 1.1507e-09 -7.87525e-10 -5.66716e-10 1.99008e-09 -1.36368e-09 -9.80999e-10 1.1507e-09 -7.8752e-10 -5.66729e-10 7.73091 5.47488 0.417314 1.1507e-09 -7.87523e-10 -5.66719e-10 2.90554 0.965183 0.102902 1.15071e-09 -7.87521e-10 -5.6672e-10 10.2786 0.731801 0.0259123 1.1507e-09 -7.8752e-10 -5.66714e-10 2.22167 -0.733487 -0.20892 0.0 0.0 0.0 0.0 0.0 0.0 0.0 0.0 0.0 0.00199746 -1.27375 0.179044 9.21679e-10 1.28727e-09 4.51851e-10 1.59277e-09 2.22633e-09 7.81643e-10 9.21678e-10 1.28728e-09 4.51859e-10 -7.73091 5.47488 -0.417314 9.21683e-10 1.28728e-09 4.51849e-10 -2.90554 0.965183 -0.102902 9.21677e-10 1.28728e-09 4.51852e-10 -10.2786 0.731801 -0.0259123 9.21683e-10 1.28728e-09 4.5184e-10 -2.22167 -0.733487 0.20892 -2.03217e-16 0.0 -3.88251e-19 -17.8787 -29.0771 -15.1938 -164.622 85.7479 165.188 -1.16274 -1.40149 -3.90266 2.03217e-16 0.0 3.88251e-19 5.89701 -32.5123 9.13799 1.69436 67.6249 -2.25531 7.39127 -20.4432 14.9215
11.836074 72.3277 36.760600000000004 -1.7228 -1.6968 -5.7109 1.13812 14.4961 1.58941 4.38812 -2.3955 0.440619 5.93779 -0.67441 2.39367 -10.9664 -7.58355 2.30423 -0.0 0.0 0.0 -0.0 0.0 0.0 0.0 0.0 0.0 0.0 0.0 0.0 0.0 0.0 0.0 -0.0104571 -2.91839 -0.410512 1.20223e-09 -1.17702e-09 -4.20393e-10 2.08003e-09 -2.03805e-09 -7.28706e-10 1.20224e-09 -1.17701e-09 -4.20406e-10 7.73091 5.47488 0.417314 1.20223e-09 -1.17701e-09 -4.20396e-10 2.90554 0.965183 0.102902 1.20224e-09 -1.17701e-09 -4.20398e-10 10.2786 0.731801 0.0259123 1.20223e-09 -1.17701e-09 -4.20393e-10 2.22167 -0.733487 -0.20892 0.0 0.0 0.0 0.0 0.0 0.0 0.0 0.0 0.0 0.00213338 -1.31874 0.18537 6.88426e-10 9.26397e-10 1.82249e-10 1.18861e-09 1.60197e-09 3.15911e-10 6.88425e-10 9.26399e-10 1.82255e-10 -7.73091 5.47488 -0.417314 6.88431e-10 9.264e-10 1.82243e-10 -2.90554 0.965183 -0.102902 6.88427e-10 9.26407e-10 1.82248e-10 -10.2786 0.731801 -0.0259123 6.8843e-10 9.26402e-10 1.82233e-10 -2.22167 -0.733487 0.20892 -2.03217e-16 0.0 -3.88251e-19 -18.7915 -30.8123 -16.1244 -167.186 84.8349 167.751 -1.30778 -1.8502 -4.32719 2.03217e-16 0.0 3.88251e-19 5.22934 -31.8345 8.92523 1.664 67.4546 -2.26188 7.73055 -20.6904 15.4843
11.998274 72.3184 37.341100000000004 -1.3279 -1.8443 -5.7996 0.655626 14.66 1.13389 4.5812 -2.41219 0.306745 6.11479 -0.588062 2.61141 -11.0618 -7.7279 2.67365 -0.0 0.0 0.0 -0.0 0.0 0.0 0.0 0.0 0.0 0.0 0.0 0.0 0.0 0.0 0.0 -0.00896004 -2.68752 -0.377992 1.01424e-09 -1.18063e-09 -1.96299e-10 1.75523e-09 -2.04433e-09 -3.41263e-10 1.01424e-09 -1.18063e-09 -1.96311e-10 7.73091 5.47488 0.417314 1.01424e-09 -1.18063e-09 -1.96303e-10 2.90554 0.965183 0.102902 1.01425e-09 -1.18063e-09 -1.96305e-10 10.2786 0.731801 0.0259123 1.01424e-09 -1.18063e-09 -1.963e-10 2.22167 -0.733487 -0.20892 0.0 0.0 0.0 0.0 0.0 0.0 0.0 0.0 0.0 0.0023204 -1.37326 0.193037 3.50693e-10 3.9081e-10 8.19095e-11 6.04169e-10 6.75059e-10 1.42945e-10 3.50691e-10 3.90811e-10 8.19148e-11 -7.73091 5.47488 -0.417314 3.50697e-10 3.90813e-10 8.19032e-11 -2.90554 0.965183 -0.102902 3.50695e-10 3.90818e-10 8.19076e-11 -10.2786 0.731801 -0.0259123 3.50697e-10 3.90814e-10 8.18925e-11 -2.22167 -0.733487 0.20892 -2.03217e-16 0.0 -3.88251e-19 -19.6838 -32.546 -17.0248 -168.705 84.075 169.269 -1.43731 -2.31829 -4.63817 2.03217e-16 0.0 3.88251e-19 4.53634 -31.1449 8.72763 1.63109 67.2585 -2.26658 8.07186 -20.9242 16.049
